<?xml version="1.0" encoding="utf-8" standalone="no"?>
<!DOCTYPE svg PUBLIC "-//W3C//DTD SVG 1.1//EN"
  "http://www.w3.org/Graphics/SVG/1.1/DTD/svg11.dtd">
<svg xmlns:xlink="http://www.w3.org/1999/xlink" width="320.56pt" height="33.13pt" viewBox="0 0 320.56 33.13" xmlns="http://www.w3.org/2000/svg" version="1.1">
 <metadata>
  <rdf:RDF xmlns:dc="http://purl.org/dc/elements/1.1/" xmlns:cc="http://creativecommons.org/ns#" xmlns:rdf="http://www.w3.org/1999/02/22-rdf-syntax-ns#">
   <cc:Work>
    <dc:type rdf:resource="http://purl.org/dc/dcmitype/StillImage"/>
    <dc:date>2026-06-09T00:03:37.508158</dc:date>
    <dc:format>image/svg+xml</dc:format>
    <dc:creator>
     <cc:Agent>
      <dc:title>Matplotlib v3.10.9, https://matplotlib.org/</dc:title>
     </cc:Agent>
    </dc:creator>
   </cc:Work>
  </rdf:RDF>
 </metadata>
 <defs>
  <style type="text/css">*{stroke-linejoin: round; stroke-linecap: butt}</style>
 </defs>
 <g id="figure_1">
  <g id="patch_1">
   <path d="M 0 33.13 
L 320.56 33.13 
L 320.56 -0 
L 0 -0 
L 0 33.13 
z
" style="fill: none; opacity: 0"/>
  </g>
  <g id="text_1">
   <!-- $dX_t=-\lambda X_t\,dt+\sigma\,dW_t$ -->
   <g style="fill: #f5f7fa" transform="translate(1.08 25.395) scale(0.32 -0.32)">
    <defs>
     <path id="Cmmi10-64" d="M 1113 -72 
Q 709 -72 476 233 
Q 244 538 244 953 
Q 244 1363 456 1803 
Q 669 2244 1030 2536 
Q 1391 2828 1806 2828 
Q 1994 2828 2145 2723 
Q 2297 2619 2381 2444 
L 2741 3872 
Q 2766 3981 2772 4044 
Q 2772 4147 2356 4147 
Q 2291 4147 2291 4231 
Q 2294 4247 2305 4287 
Q 2316 4328 2333 4350 
Q 2350 4372 2381 4372 
L 3244 4441 
Q 3322 4441 3322 4359 
L 2400 678 
Q 2356 572 2356 372 
Q 2356 97 2541 97 
Q 2741 97 2845 351 
Q 2950 606 3022 941 
Q 3034 978 3072 978 
L 3150 978 
Q 3175 978 3190 956 
Q 3206 934 3206 916 
Q 3094 469 2961 198 
Q 2828 -72 2528 -72 
Q 2313 -72 2147 54 
Q 1981 181 1941 391 
Q 1528 -72 1113 -72 
z
M 1119 97 
Q 1350 97 1567 270 
Q 1784 444 1941 678 
Q 1947 684 1947 703 
L 2297 2113 
Q 2259 2338 2131 2500 
Q 2003 2663 1791 2663 
Q 1575 2663 1389 2486 
Q 1203 2309 1075 2069 
Q 950 1813 836 1366 
Q 722 919 722 672 
Q 722 450 817 273 
Q 913 97 1119 97 
z
" transform="scale(0.015625)"/>
     <path id="Cmmi10-58" d="M 231 0 
Q 166 0 166 84 
Q 169 100 180 140 
Q 191 181 208 203 
Q 225 225 256 225 
Q 838 225 1253 659 
Q 1259 666 1267 669 
Q 1275 672 1275 672 
L 2675 2181 
L 1913 4019 
Q 1847 4103 1700 4125 
Q 1553 4147 1356 4147 
Q 1294 4147 1294 4231 
Q 1316 4313 1328 4342 
Q 1341 4372 1403 4372 
L 3003 4372 
Q 3066 4372 3066 4288 
Q 3063 4272 3052 4231 
Q 3041 4191 3023 4169 
Q 3006 4147 2975 4147 
Q 2856 4147 2729 4108 
Q 2603 4069 2553 3981 
L 3103 2656 
L 4153 3781 
Q 4163 3803 4197 3858 
Q 4231 3913 4231 3963 
Q 4231 4056 4150 4101 
Q 4069 4147 3956 4147 
Q 3891 4147 3891 4231 
Q 3913 4313 3925 4342 
Q 3938 4372 4000 4372 
L 5388 4372 
Q 5422 4372 5437 4347 
Q 5453 4322 5453 4288 
Q 5450 4272 5440 4234 
Q 5431 4197 5415 4172 
Q 5400 4147 5369 4147 
Q 5072 4147 4823 4039 
Q 4575 3931 4366 3713 
Q 4363 3709 4358 3707 
Q 4353 3706 4347 3700 
L 3188 2450 
L 4063 353 
Q 4166 225 4622 225 
Q 4684 225 4684 141 
Q 4663 56 4648 28 
Q 4634 0 4575 0 
L 2975 0 
Q 2913 0 2913 84 
Q 2916 100 2925 139 
Q 2934 178 2951 201 
Q 2969 225 2994 225 
Q 3119 225 3247 264 
Q 3375 303 3425 391 
L 2759 1984 
L 1466 588 
Q 1456 566 1422 512 
Q 1388 459 1388 409 
Q 1388 316 1475 270 
Q 1563 225 1663 225 
Q 1728 225 1728 141 
Q 1706 50 1693 25 
Q 1681 0 1619 0 
L 231 0 
z
" transform="scale(0.015625)"/>
     <path id="Cmmi10-74" d="M 397 519 
Q 397 613 416 697 
L 878 2534 
L 206 2534 
Q 141 2534 141 2619 
Q 166 2759 225 2759 
L 934 2759 
L 1191 3803 
Q 1216 3888 1291 3947 
Q 1366 4006 1459 4006 
Q 1541 4006 1595 3957 
Q 1650 3909 1650 3828 
Q 1650 3809 1648 3798 
Q 1647 3788 1644 3775 
L 1388 2759 
L 2047 2759 
Q 2113 2759 2113 2675 
Q 2109 2659 2100 2621 
Q 2091 2584 2075 2559 
Q 2059 2534 2028 2534 
L 1331 2534 
L 872 684 
Q 825 503 825 372 
Q 825 97 1013 97 
Q 1294 97 1511 361 
Q 1728 625 1844 941 
Q 1869 978 1894 978 
L 1972 978 
Q 1997 978 2012 961 
Q 2028 944 2028 922 
Q 2028 909 2022 903 
Q 1881 516 1612 222 
Q 1344 -72 997 -72 
Q 744 -72 570 93 
Q 397 259 397 519 
z
" transform="scale(0.015625)"/>
     <path id="Cmr10-3d" d="M 481 850 
Q 428 850 393 890 
Q 359 931 359 978 
Q 359 1031 393 1068 
Q 428 1106 481 1106 
L 4500 1106 
Q 4547 1106 4581 1068 
Q 4616 1031 4616 978 
Q 4616 931 4581 890 
Q 4547 850 4500 850 
L 481 850 
z
M 481 2094 
Q 428 2094 393 2131 
Q 359 2169 359 2222 
Q 359 2269 393 2309 
Q 428 2350 481 2350 
L 4500 2350 
Q 4547 2350 4581 2309 
Q 4616 2269 4616 2222 
Q 4616 2169 4581 2131 
Q 4547 2094 4500 2094 
L 481 2094 
z
" transform="scale(0.015625)"/>
     <path id="Cmsy10-a1" d="M 653 1472 
Q 600 1472 565 1512 
Q 531 1553 531 1600 
Q 531 1647 565 1687 
Q 600 1728 653 1728 
L 4325 1728 
Q 4375 1728 4408 1687 
Q 4441 1647 4441 1600 
Q 4441 1553 4408 1512 
Q 4375 1472 4325 1472 
L 653 1472 
z
" transform="scale(0.015625)"/>
     <path id="Cmmi10-b8" d="M 325 109 
Q 325 203 409 288 
L 2209 2053 
L 1575 3834 
Q 1500 4038 1417 4156 
Q 1334 4275 1178 4275 
Q 1106 4275 1106 4359 
Q 1113 4397 1138 4419 
Q 1163 4441 1203 4441 
Q 1875 4441 2016 4044 
L 3316 416 
Q 3400 144 3488 50 
Q 3519 3 3519 -13 
Q 3519 -72 3469 -72 
L 3122 -72 
Q 2963 -25 2869 206 
L 2284 1844 
L 738 25 
Q 622 -84 531 -84 
Q 450 -84 387 -28 
Q 325 28 325 109 
z
" transform="scale(0.015625)"/>
     <path id="Cmr10-2b" d="M 481 1472 
Q 428 1472 393 1512 
Q 359 1553 359 1600 
Q 359 1647 393 1687 
Q 428 1728 481 1728 
L 2363 1728 
L 2363 3616 
Q 2363 3666 2400 3698 
Q 2438 3731 2491 3731 
Q 2538 3731 2578 3698 
Q 2619 3666 2619 3616 
L 2619 1728 
L 4500 1728 
Q 4547 1728 4581 1687 
Q 4616 1647 4616 1600 
Q 4616 1553 4581 1512 
Q 4547 1472 4500 1472 
L 2619 1472 
L 2619 -416 
Q 2619 -466 2578 -498 
Q 2538 -531 2491 -531 
Q 2438 -531 2400 -498 
Q 2363 -466 2363 -416 
L 2363 1472 
L 481 1472 
z
" transform="scale(0.015625)"/>
     <path id="Cmmi10-be" d="M 1197 -72 
Q 913 -72 692 64 
Q 472 200 351 431 
Q 231 663 231 941 
Q 231 1238 365 1566 
Q 500 1894 733 2166 
Q 966 2438 1259 2598 
Q 1553 2759 1863 2759 
L 3475 2759 
Q 3541 2759 3587 2715 
Q 3634 2672 3634 2597 
Q 3634 2503 3567 2433 
Q 3500 2363 3406 2363 
L 2625 2363 
Q 2809 2088 2809 1697 
Q 2809 1375 2684 1062 
Q 2559 750 2337 492 
Q 2116 234 1820 81 
Q 1525 -72 1197 -72 
z
M 1203 97 
Q 1553 97 1823 370 
Q 2094 644 2237 1039 
Q 2381 1434 2381 1772 
Q 2381 2047 2229 2205 
Q 2078 2363 1806 2363 
Q 1434 2363 1173 2113 
Q 913 1863 783 1484 
Q 653 1106 653 756 
Q 653 481 798 289 
Q 944 97 1203 97 
z
" transform="scale(0.015625)"/>
     <path id="Cmmi10-57" d="M 1141 -72 
L 844 4006 
Q 822 4100 703 4123 
Q 584 4147 409 4147 
Q 347 4147 347 4231 
Q 369 4313 381 4342 
Q 394 4372 453 4372 
L 1978 4372 
Q 2041 4372 2041 4288 
Q 2016 4147 1959 4147 
Q 1447 4147 1416 3969 
L 1644 738 
L 3244 3525 
L 3213 4006 
Q 3191 4100 3072 4123 
Q 2953 4147 2778 4147 
Q 2713 4147 2713 4231 
Q 2734 4313 2746 4342 
Q 2759 4372 2822 4372 
L 4347 4372 
Q 4409 4372 4409 4288 
Q 4406 4272 4397 4234 
Q 4388 4197 4372 4172 
Q 4356 4147 4325 4147 
Q 3809 4147 3781 3969 
L 3781 3922 
L 4013 738 
L 5753 3775 
Q 5791 3844 5791 3909 
Q 5791 4041 5662 4094 
Q 5534 4147 5375 4147 
Q 5313 4147 5313 4231 
Q 5325 4281 5333 4309 
Q 5341 4338 5361 4355 
Q 5381 4372 5422 4372 
L 6644 4372 
Q 6706 4372 6706 4288 
Q 6703 4272 6693 4233 
Q 6684 4194 6667 4170 
Q 6650 4147 6625 4147 
Q 6169 4147 5931 3731 
Q 5913 3713 5913 3713 
L 3744 -72 
Q 3709 -141 3634 -141 
L 3584 -141 
Q 3506 -141 3506 -72 
L 3263 3225 
L 1381 -72 
Q 1334 -141 1269 -141 
L 1216 -141 
Q 1141 -141 1141 -72 
z
" transform="scale(0.015625)"/>
    </defs>
    <use xlink:href="#Cmmi10-64" transform="translate(0 0.609375)"/>
    <use xlink:href="#Cmmi10-58" transform="translate(52.001953 0.609375)"/>
    <use xlink:href="#Cmmi10-74" transform="translate(134.814453 -16.396875) scale(0.7)"/>
    <use xlink:href="#Cmr10-3d" transform="translate(184.00918 0.609375)"/>
    <use xlink:href="#Cmsy10-a1" transform="translate(279.25332 0.609375)"/>
    <use xlink:href="#Cmmi10-b8" transform="translate(356.938867 0.609375)"/>
    <use xlink:href="#Cmmi10-58" transform="translate(415.239648 0.609375)"/>
    <use xlink:href="#Cmmi10-74" transform="translate(498.052148 -16.396875) scale(0.7)"/>
    <use xlink:href="#Cmmi10-64" transform="translate(544.320735 0.609375)"/>
    <use xlink:href="#Cmmi10-74" transform="translate(596.322688 0.609375)"/>
    <use xlink:href="#Cmr10-2b" transform="translate(649.965267 0.609375)"/>
    <use xlink:href="#Cmmi10-be" transform="translate(745.209407 0.609375)"/>
    <use xlink:href="#Cmmi10-64" transform="translate(816.921939 0.609375)"/>
    <use xlink:href="#Cmmi10-57" transform="translate(868.923893 0.609375)"/>
    <use xlink:href="#Cmmi10-74" transform="translate(963.308658 -16.396875) scale(0.7)"/>
   </g>
  </g>
 </g>
</svg>
